<?xml version="1.0" encoding="UTF-8" standalone="no"?>
<!DOCTYPE svg PUBLIC "-//W3C//DTD SVG 1.1//EN" "http://www.w3.org/Graphics/SVG/1.1/DTD/svg11.dtd">
<svg width="100%" height="100%" viewBox="0 0 586 391" version="1.1" xmlns="http://www.w3.org/2000/svg" xmlns:xlink="http://www.w3.org/1999/xlink" xml:space="preserve" xmlns:serif="http://www.serif.com/" style="fill-rule:evenodd;clip-rule:evenodd;stroke-linejoin:round;stroke-miterlimit:2;">
    <g id="g50" transform="matrix(3.77953,0,0,3.77953,-80.9768,-61.5147)">
        <g id="g24">
            <path id="path40" d="M100.513,119.657C100.576,119.632 100.652,119.635 100.682,119.664C100.711,119.694 100.659,119.715 100.566,119.711C100.463,119.707 100.442,119.686 100.513,119.657L100.513,119.657ZM109.508,119.657C109.572,119.632 109.648,119.635 109.677,119.664C109.707,119.694 109.655,119.715 109.562,119.711C109.459,119.707 109.438,119.686 109.508,119.657L109.508,119.657ZM104.74,117.095C104.947,117.077 105.284,117.077 105.49,117.095C105.696,117.114 105.527,117.129 105.115,117.129C104.703,117.129 104.534,117.114 104.74,117.095ZM100.777,117.012C100.841,116.986 100.917,116.989 100.946,117.019C100.975,117.048 100.923,117.069 100.83,117.065C100.728,117.061 100.707,117.04 100.777,117.012L100.777,117.012ZM98.925,116.923C98.989,116.898 99.065,116.901 99.094,116.93C99.123,116.96 99.071,116.981 98.978,116.977C98.876,116.973 98.855,116.952 98.925,116.923L98.925,116.923ZM104.167,113.834C104.3,113.813 104.519,113.813 104.652,113.834C104.786,113.854 104.676,113.87 104.41,113.87C104.143,113.87 104.034,113.854 104.167,113.834ZM106.901,113.834C107.035,113.813 107.253,113.813 107.386,113.834C107.52,113.854 107.41,113.87 107.144,113.87C106.877,113.87 106.768,113.854 106.901,113.834ZM110.214,113.748C110.278,113.723 110.354,113.726 110.383,113.755C110.412,113.785 110.36,113.806 110.267,113.802C110.164,113.798 110.144,113.777 110.214,113.748L110.214,113.748ZM101.835,101.666C101.899,101.64 101.975,101.643 102.004,101.673C102.034,101.702 101.982,101.723 101.889,101.719C101.786,101.715 101.765,101.694 101.835,101.666L101.835,101.666ZM107.827,101.668C107.888,101.643 107.987,101.643 108.048,101.668C108.108,101.692 108.059,101.712 107.937,101.712C107.816,101.712 107.767,101.692 107.827,101.668ZM109.685,101.578C109.748,101.552 109.824,101.555 109.854,101.585C109.883,101.614 109.831,101.635 109.738,101.631C109.635,101.627 109.614,101.606 109.685,101.578L109.685,101.578ZM102.541,98.667C102.605,98.642 102.681,98.645 102.71,98.674C102.739,98.703 102.687,98.724 102.594,98.72C102.492,98.716 102.471,98.695 102.541,98.667L102.541,98.667ZM106.857,98.669C106.918,98.645 107.017,98.645 107.077,98.669C107.138,98.694 107.088,98.714 106.967,98.714C106.846,98.714 106.796,98.694 106.857,98.669ZM102.012,95.933C102.076,95.908 102.152,95.911 102.181,95.94C102.21,95.97 102.158,95.99 102.065,95.987C101.962,95.982 101.941,95.961 102.012,95.933L102.012,95.933ZM159.09,94.382C159.09,94.368 159.398,94.061 159.774,93.698L160.457,93.039L159.798,93.722C159.186,94.357 159.09,94.446 159.09,94.382ZM64.672,86.799L64.413,86.512L64.7,86.771C64.967,87.013 65.027,87.086 64.959,87.086C64.944,87.086 64.815,86.957 64.672,86.799ZM154.488,77.847C155.425,77.833 156.933,77.833 157.839,77.847C158.746,77.862 157.979,77.874 156.136,77.873C154.292,77.873 153.551,77.862 154.488,77.847L154.488,77.847ZM59.804,67.771C59.804,67.601 59.822,67.532 59.844,67.617C59.866,67.702 59.866,67.841 59.844,67.925C59.822,68.01 59.804,67.941 59.804,67.771ZM147.256,50.507C148.873,50.494 151.492,50.494 153.077,50.507C154.662,50.521 153.34,50.532 150.138,50.532C146.937,50.532 145.64,50.521 147.256,50.507L147.256,50.507ZM160.807,42.349L160.369,41.886L160.832,42.324C161.087,42.564 161.295,42.773 161.295,42.787C161.295,42.853 161.213,42.779 160.807,42.349ZM103.247,39.665C103.31,39.64 103.386,39.643 103.416,39.672C103.445,39.701 103.393,39.722 103.3,39.718C103.197,39.714 103.176,39.693 103.247,39.665L103.247,39.665ZM106.945,39.667C107.006,39.642 107.105,39.642 107.166,39.667C107.226,39.691 107.177,39.711 107.055,39.711C106.934,39.711 106.885,39.691 106.945,39.667ZM107.921,36.931C107.985,36.906 108.061,36.909 108.09,36.938C108.119,36.967 108.067,36.988 107.974,36.984C107.871,36.98 107.851,36.959 107.921,36.931L107.921,36.931ZM103.241,34.111C103.302,34.086 103.401,34.086 103.462,34.111C103.522,34.135 103.473,34.155 103.351,34.155C103.23,34.155 103.18,34.135 103.241,34.111ZM108.362,34.109C108.426,34.083 108.502,34.086 108.531,34.116C108.56,34.145 108.508,34.166 108.415,34.162C108.312,34.158 108.291,34.137 108.362,34.109L108.362,34.109ZM99.101,22.026C99.165,22.001 99.241,22.004 99.27,22.033C99.3,22.062 99.248,22.083 99.155,22.079C99.052,22.075 99.031,22.054 99.101,22.026L99.101,22.026ZM109.332,22.026C109.396,22.001 109.472,22.004 109.501,22.033C109.53,22.062 109.478,22.083 109.385,22.079C109.283,22.075 109.262,22.054 109.332,22.026L109.332,22.026ZM101.082,21.937C101.168,21.915 101.287,21.916 101.347,21.94C101.406,21.965 101.336,21.983 101.191,21.981C101.045,21.979 100.996,21.959 101.082,21.937L101.082,21.937ZM107.21,21.94C107.27,21.915 107.37,21.915 107.43,21.94C107.491,21.964 107.441,21.984 107.32,21.984C107.199,21.984 107.149,21.964 107.21,21.94ZM100.424,19.116C100.488,19.09 100.564,19.093 100.593,19.123C100.623,19.152 100.571,19.173 100.478,19.169C100.375,19.165 100.354,19.144 100.424,19.116L100.424,19.116ZM108.274,19.116C108.337,19.09 108.413,19.093 108.443,19.123C108.472,19.152 108.42,19.173 108.327,19.169C108.224,19.165 108.203,19.144 108.274,19.116L108.274,19.116ZM100.336,16.294C100.4,16.268 100.476,16.271 100.505,16.301C100.534,16.33 100.482,16.351 100.389,16.347C100.287,16.343 100.266,16.322 100.336,16.294L100.336,16.294ZM107.921,16.294C107.985,16.268 108.061,16.271 108.09,16.301C108.119,16.33 108.067,16.351 107.974,16.347C107.871,16.343 107.851,16.322 107.921,16.294L107.921,16.294Z" style="fill:rgb(208,208,208);fill-rule:nonzero;"/>
            <path id="path38" d="M100.817,119.657C100.903,119.634 101.022,119.636 101.082,119.66C101.142,119.684 101.071,119.702 100.926,119.7C100.78,119.698 100.732,119.679 100.817,119.656L100.817,119.657ZM109.108,119.657C109.193,119.634 109.313,119.636 109.372,119.66C109.432,119.684 109.362,119.702 109.216,119.7C109.071,119.698 109.022,119.679 109.108,119.656L109.108,119.657ZM98.484,119.569C98.548,119.544 98.624,119.547 98.653,119.576C98.682,119.606 98.63,119.626 98.537,119.623C98.435,119.619 98.414,119.597 98.484,119.569L98.484,119.569ZM111.449,119.569C111.512,119.544 111.588,119.547 111.618,119.576C111.647,119.606 111.595,119.626 111.502,119.623C111.399,119.619 111.378,119.597 111.449,119.569L111.449,119.569ZM113.036,119.481C113.1,119.456 113.176,119.459 113.205,119.488C113.234,119.517 113.182,119.538 113.089,119.534C112.987,119.53 112.966,119.509 113.036,119.481L113.036,119.481ZM103.684,117.096C103.842,117.077 104.08,117.077 104.213,117.097C104.345,117.117 104.216,117.133 103.925,117.133C103.634,117.132 103.525,117.116 103.684,117.096L103.684,117.096ZM106.065,117.096C106.223,117.077 106.461,117.077 106.594,117.097C106.727,117.117 106.597,117.133 106.306,117.133C106.015,117.132 105.906,117.116 106.065,117.096L106.065,117.096ZM100.513,117.012C100.576,116.986 100.652,116.989 100.682,117.019C100.711,117.048 100.659,117.069 100.566,117.065C100.463,117.061 100.442,117.04 100.513,117.012L100.513,117.012ZM109.597,117.012C109.66,116.986 109.736,116.989 109.766,117.019C109.795,117.048 109.743,117.069 109.65,117.065C109.547,117.061 109.526,117.04 109.597,117.012L109.597,117.012ZM105.317,113.832C105.598,113.814 106.034,113.814 106.287,113.832C106.54,113.849 106.31,113.864 105.777,113.863C105.243,113.863 105.036,113.849 105.317,113.831L105.317,113.832ZM101.389,113.75C101.45,113.726 101.549,113.726 101.609,113.75C101.67,113.775 101.62,113.795 101.499,113.795C101.378,113.795 101.328,113.775 101.389,113.75ZM109.856,113.75C109.916,113.726 110.015,113.726 110.076,113.75C110.137,113.775 110.087,113.795 109.966,113.795C109.845,113.795 109.795,113.775 109.856,113.75ZM111.713,113.66C111.777,113.635 111.853,113.638 111.882,113.667C111.912,113.697 111.859,113.717 111.767,113.714C111.664,113.71 111.643,113.688 111.713,113.66L111.713,113.66ZM98.308,113.572C98.371,113.547 98.447,113.55 98.477,113.579C98.506,113.608 98.454,113.629 98.361,113.625C98.258,113.621 98.237,113.6 98.308,113.572L98.308,113.572ZM101.571,101.666C101.635,101.64 101.711,101.643 101.74,101.673C101.769,101.702 101.717,101.723 101.624,101.719C101.521,101.715 101.501,101.694 101.571,101.666L101.571,101.666ZM108.185,101.666C108.249,101.64 108.325,101.643 108.354,101.673C108.384,101.702 108.332,101.723 108.239,101.719C108.136,101.715 108.115,101.694 108.185,101.666L108.185,101.666ZM48.177,98.794L48.009,98.595L48.208,98.763C48.394,98.921 48.446,98.992 48.376,98.992C48.359,98.992 48.27,98.903 48.177,98.794ZM102.846,98.666C102.932,98.644 103.051,98.645 103.11,98.67C103.17,98.694 103.1,98.712 102.954,98.71C102.809,98.708 102.76,98.689 102.846,98.666L102.846,98.666ZM106.462,98.666C106.548,98.644 106.667,98.645 106.726,98.67C106.786,98.694 106.716,98.712 106.57,98.71C106.425,98.708 106.376,98.689 106.462,98.666L106.462,98.666ZM47.295,97.912L47.127,97.713L47.326,97.881C47.512,98.039 47.564,98.11 47.494,98.11C47.477,98.11 47.388,98.021 47.295,97.912ZM156.709,96.577C156.709,96.559 156.778,96.49 156.863,96.423C157.003,96.313 157.006,96.316 156.897,96.456C156.781,96.603 156.709,96.65 156.709,96.577L156.709,96.577ZM54.48,96.28C54.371,96.14 54.374,96.137 54.514,96.247C54.661,96.362 54.707,96.434 54.635,96.434C54.616,96.434 54.547,96.365 54.48,96.28L54.48,96.28ZM157.679,95.695C157.679,95.677 157.749,95.608 157.833,95.541C157.973,95.431 157.976,95.435 157.867,95.574C157.752,95.721 157.679,95.768 157.679,95.695L157.679,95.695ZM53.557,95.442L53.389,95.244L53.588,95.412C53.697,95.504 53.786,95.593 53.786,95.61C53.786,95.681 53.715,95.629 53.557,95.442ZM51.041,92.929C50.931,92.789 50.934,92.786 51.074,92.895C51.221,93.011 51.268,93.083 51.195,93.083C51.177,93.083 51.107,93.013 51.041,92.929L51.041,92.929ZM161.56,91.815C161.56,91.797 161.629,91.727 161.714,91.661C161.854,91.551 161.857,91.554 161.747,91.694C161.632,91.841 161.56,91.888 161.56,91.815L161.56,91.815ZM66.475,88.519C66.365,88.379 66.368,88.376 66.508,88.486C66.593,88.552 66.662,88.622 66.662,88.64C66.662,88.713 66.59,88.666 66.475,88.519L66.475,88.519ZM65.247,87.372L64.943,87.042L65.273,87.346C65.455,87.513 65.604,87.662 65.604,87.676C65.604,87.744 65.529,87.68 65.247,87.372ZM64.143,86.27L63.884,85.983L64.171,86.242C64.329,86.385 64.458,86.514 64.458,86.529C64.458,86.597 64.385,86.537 64.143,86.27ZM145.332,86.259C145.332,86.24 145.401,86.171 145.486,86.104C145.626,85.995 145.629,85.998 145.519,86.138C145.404,86.285 145.332,86.331 145.332,86.259L145.332,86.259ZM139.908,83.734C139.996,83.637 140.087,83.558 140.112,83.558C140.136,83.558 140.084,83.637 139.996,83.734C139.908,83.831 139.817,83.911 139.792,83.911C139.768,83.911 139.82,83.831 139.908,83.734ZM140.569,83.084C140.569,83.065 140.639,82.996 140.724,82.929C140.864,82.82 140.867,82.823 140.757,82.963C140.642,83.11 140.569,83.156 140.569,83.084L140.569,83.084ZM161.053,77.847C161.962,77.833 163.45,77.833 164.36,77.847C165.269,77.862 164.525,77.874 162.706,77.874C160.887,77.874 160.143,77.862 161.053,77.847ZM176.383,73.893C176.387,73.791 176.408,73.77 176.437,73.84C176.462,73.904 176.459,73.98 176.43,74.009C176.4,74.038 176.379,73.986 176.383,73.893L176.383,73.893ZM171.945,72.203C172.781,72.189 174.15,72.189 174.987,72.203C175.824,72.218 175.139,72.229 173.466,72.229C171.792,72.229 171.108,72.218 171.945,72.203ZM37.029,66.327C37.029,66.308 37.099,66.239 37.183,66.172C37.323,66.063 37.326,66.066 37.217,66.206C37.101,66.353 37.029,66.399 37.029,66.327ZM66.221,51.775C66.221,51.756 66.291,51.687 66.376,51.62C66.516,51.511 66.519,51.514 66.409,51.654C66.294,51.801 66.221,51.847 66.221,51.775ZM139.842,50.507C140.678,50.493 142.048,50.493 142.884,50.507C143.721,50.522 143.037,50.534 141.363,50.534C139.69,50.534 139.005,50.522 139.842,50.507ZM63.311,50.364C63.311,50.345 63.38,50.276 63.465,50.209C63.605,50.099 63.608,50.103 63.499,50.242C63.383,50.389 63.311,50.436 63.311,50.364ZM67.633,50.364C67.633,50.345 67.702,50.276 67.787,50.209C67.927,50.099 67.93,50.103 67.82,50.242C67.705,50.389 67.633,50.436 67.633,50.364ZM63.928,49.658C63.928,49.64 63.998,49.57 64.083,49.504C64.223,49.394 64.226,49.397 64.116,49.537C64.001,49.684 63.928,49.731 63.928,49.658L63.928,49.658ZM66.574,47.012C66.574,46.994 66.644,46.924 66.729,46.858C66.868,46.748 66.872,46.751 66.762,46.891C66.647,47.038 66.574,47.085 66.574,47.012L66.574,47.012ZM51.581,42.426C51.581,42.408 51.651,42.338 51.735,42.272C51.875,42.162 51.878,42.165 51.769,42.305C51.654,42.452 51.581,42.499 51.581,42.426L51.581,42.426ZM52.639,41.269C52.753,41.147 52.866,41.048 52.891,41.048C52.915,41.048 52.842,41.147 52.728,41.269C52.614,41.39 52.501,41.489 52.476,41.489C52.452,41.489 52.526,41.39 52.639,41.269ZM101.13,39.753C101.194,39.728 101.27,39.731 101.299,39.76C101.328,39.79 101.276,39.81 101.183,39.807C101.08,39.802 101.06,39.781 101.13,39.753L101.13,39.753ZM54.403,39.505C54.517,39.384 54.63,39.284 54.655,39.284C54.679,39.284 54.605,39.384 54.492,39.505C54.378,39.626 54.265,39.725 54.24,39.725C54.216,39.725 54.289,39.626 54.403,39.505ZM102.888,39.667C102.949,39.642 103.048,39.642 103.109,39.667C103.169,39.691 103.12,39.711 102.999,39.711C102.877,39.711 102.828,39.691 102.888,39.667ZM107.298,39.667C107.359,39.642 107.458,39.642 107.518,39.667C107.579,39.691 107.529,39.711 107.408,39.711C107.287,39.711 107.237,39.691 107.298,39.667ZM103.199,36.93C103.284,36.908 103.404,36.909 103.463,36.933C103.523,36.958 103.453,36.976 103.307,36.974C103.162,36.972 103.113,36.953 103.199,36.93L103.199,36.93ZM107.563,36.933C107.623,36.908 107.722,36.908 107.783,36.933C107.844,36.957 107.794,36.977 107.673,36.977C107.552,36.977 107.502,36.957 107.563,36.933ZM110.302,34.197C110.366,34.172 110.442,34.175 110.471,34.204C110.5,34.233 110.448,34.254 110.355,34.25C110.253,34.246 110.232,34.225 110.302,34.197L110.302,34.197ZM102.982,34.109C103.046,34.083 103.122,34.086 103.151,34.116C103.18,34.145 103.128,34.166 103.035,34.162C102.933,34.158 102.912,34.137 102.982,34.109L102.982,34.109ZM108.621,34.111C108.682,34.086 108.781,34.086 108.841,34.111C108.902,34.135 108.852,34.155 108.731,34.155C108.61,34.155 108.56,34.135 108.621,34.111ZM101.477,21.94C101.538,21.915 101.637,21.915 101.698,21.94C101.758,21.964 101.709,21.984 101.587,21.984C101.466,21.984 101.417,21.964 101.477,21.94ZM106.815,21.937C106.9,21.915 107.019,21.916 107.079,21.94C107.139,21.965 107.069,21.983 106.923,21.981C106.778,21.979 106.729,21.959 106.815,21.937L106.815,21.937ZM100.16,19.116C100.223,19.09 100.299,19.093 100.329,19.123C100.358,19.152 100.306,19.173 100.213,19.169C100.11,19.165 100.089,19.144 100.16,19.116L100.16,19.116ZM108.538,19.116C108.602,19.09 108.678,19.093 108.707,19.123C108.737,19.152 108.684,19.173 108.592,19.169C108.489,19.165 108.468,19.144 108.538,19.116L108.538,19.116ZM103.947,19.023C104.201,19.005 104.618,19.005 104.873,19.023C105.127,19.041 104.919,19.055 104.41,19.055C103.9,19.055 103.692,19.041 103.947,19.023ZM109.685,16.382C109.748,16.356 109.824,16.359 109.854,16.389C109.883,16.418 109.831,16.439 109.738,16.435C109.635,16.431 109.614,16.41 109.685,16.382L109.685,16.382ZM100.595,16.295C100.656,16.271 100.755,16.271 100.816,16.295C100.876,16.32 100.827,16.34 100.705,16.34C100.584,16.34 100.535,16.32 100.595,16.295ZM107.656,16.294C107.72,16.268 107.796,16.271 107.825,16.301C107.855,16.33 107.803,16.351 107.71,16.347C107.607,16.343 107.586,16.322 107.656,16.294L107.656,16.294Z" style="fill:rgb(185,185,185);fill-rule:nonzero;"/>
            <path id="path36" d="M101.747,113.748C101.811,113.723 101.887,113.726 101.916,113.755C101.946,113.785 101.893,113.806 101.801,113.802C101.698,113.798 101.677,113.777 101.747,113.748L101.747,113.748ZM109.597,113.748C109.66,113.723 109.736,113.726 109.766,113.755C109.795,113.785 109.743,113.806 109.65,113.802C109.547,113.798 109.526,113.777 109.597,113.748L109.597,113.748ZM101.306,101.666C101.37,101.64 101.446,101.643 101.475,101.673C101.505,101.702 101.453,101.723 101.36,101.719C101.257,101.715 101.236,101.694 101.306,101.666L101.306,101.666ZM108.45,101.666C108.514,101.64 108.59,101.643 108.619,101.673C108.648,101.702 108.596,101.723 108.503,101.719C108.401,101.715 108.38,101.694 108.45,101.666L108.45,101.666ZM143.921,87.747C144.184,87.48 144.42,87.262 144.444,87.262C144.468,87.262 144.272,87.48 144.009,87.747C143.745,88.014 143.51,88.232 143.486,88.232C143.461,88.232 143.657,88.014 143.921,87.747ZM166.829,77.848C167.326,77.832 168.14,77.832 168.637,77.848C169.134,77.863 168.728,77.876 167.733,77.876C166.739,77.876 166.332,77.863 166.829,77.848ZM56.184,68.344C56.186,68.199 56.206,68.15 56.228,68.236C56.251,68.322 56.249,68.441 56.225,68.5C56.201,68.56 56.183,68.49 56.184,68.344L56.184,68.344ZM65.295,48.192C65.534,47.949 65.75,47.751 65.774,47.751C65.798,47.751 65.622,47.949 65.384,48.192C65.145,48.434 64.929,48.633 64.905,48.633C64.881,48.633 65.056,48.434 65.295,48.192ZM53.036,40.872C53.124,40.775 53.216,40.695 53.24,40.695C53.264,40.695 53.212,40.775 53.125,40.872C53.037,40.969 52.945,41.048 52.921,41.048C52.897,41.048 52.949,40.969 53.036,40.872ZM54.006,39.902C54.094,39.805 54.186,39.725 54.21,39.725C54.234,39.725 54.182,39.805 54.095,39.902C54.007,39.999 53.915,40.078 53.891,40.078C53.867,40.078 53.919,39.999 54.006,39.902ZM102.624,34.111C102.684,34.086 102.784,34.086 102.844,34.111C102.905,34.135 102.855,34.155 102.734,34.155C102.613,34.155 102.563,34.135 102.624,34.111ZM99.542,22.026C99.606,22.001 99.682,22.004 99.711,22.033C99.741,22.062 99.689,22.083 99.596,22.079C99.493,22.075 99.472,22.054 99.542,22.026L99.542,22.026ZM108.891,22.026C108.955,22.001 109.031,22.004 109.06,22.033C109.089,22.062 109.037,22.083 108.944,22.079C108.842,22.075 108.821,22.054 108.891,22.026L108.891,22.026ZM101.874,21.937C101.959,21.915 102.098,21.915 102.183,21.937C102.268,21.96 102.198,21.978 102.028,21.978C101.859,21.978 101.789,21.96 101.874,21.937ZM106.374,21.937C106.459,21.915 106.578,21.916 106.638,21.94C106.698,21.965 106.628,21.983 106.482,21.981C106.337,21.979 106.288,21.959 106.374,21.937L106.374,21.937Z" style="fill:rgb(163,163,163);fill-rule:nonzero;"/>
            <path id="path34" d="M101.258,119.657C101.344,119.634 101.463,119.636 101.523,119.66C101.583,119.684 101.512,119.702 101.367,119.7C101.221,119.698 101.173,119.679 101.258,119.656L101.258,119.657ZM108.667,119.657C108.752,119.634 108.872,119.636 108.931,119.66C108.991,119.684 108.921,119.702 108.775,119.7C108.63,119.698 108.581,119.679 108.667,119.656L108.667,119.657ZM98.749,119.569C98.812,119.544 98.888,119.547 98.918,119.576C98.947,119.606 98.895,119.626 98.802,119.623C98.699,119.619 98.678,119.597 98.749,119.569L98.749,119.569ZM97.073,119.481C97.137,119.456 97.213,119.459 97.242,119.488C97.271,119.517 97.219,119.538 97.126,119.534C97.023,119.53 97.003,119.509 97.073,119.481L97.073,119.481ZM102.977,117.098C103.087,117.077 103.246,117.077 103.33,117.1C103.415,117.122 103.325,117.139 103.131,117.138C102.937,117.137 102.868,117.119 102.977,117.098L102.977,117.098ZM107.034,117.098C107.144,117.077 107.303,117.077 107.387,117.1C107.472,117.122 107.382,117.139 107.188,117.138C106.994,117.137 106.925,117.119 107.034,117.098L107.034,117.098ZM100.248,117.012C100.312,116.986 100.388,116.989 100.417,117.019C100.446,117.048 100.394,117.069 100.301,117.065C100.198,117.061 100.178,117.04 100.248,117.012L100.248,117.012ZM109.949,117.012C110.013,116.986 110.089,116.989 110.118,117.019C110.148,117.048 110.096,117.069 110.003,117.065C109.9,117.061 109.879,117.04 109.949,117.012L109.949,117.012ZM102.006,113.75C102.067,113.726 102.166,113.726 102.227,113.75C102.287,113.775 102.238,113.795 102.117,113.795C101.995,113.795 101.946,113.775 102.006,113.75ZM109.332,113.748C109.396,113.723 109.472,113.726 109.501,113.755C109.53,113.784 109.478,113.805 109.385,113.801C109.283,113.797 109.262,113.776 109.332,113.748L109.332,113.748ZM100.072,113.66C100.135,113.634 100.211,113.638 100.241,113.667C100.27,113.696 100.218,113.717 100.125,113.713C100.022,113.709 100.001,113.688 100.072,113.66L100.072,113.66ZM104.347,101.749C104.677,101.732 105.193,101.732 105.494,101.749C105.795,101.766 105.525,101.78 104.895,101.779C104.264,101.779 104.018,101.765 104.347,101.748L104.347,101.749ZM101.042,101.666C101.105,101.64 101.181,101.643 101.211,101.673C101.24,101.702 101.188,101.723 101.095,101.719C100.992,101.715 100.971,101.694 101.042,101.666L101.042,101.666ZM49.453,99.984C49.344,99.844 49.347,99.841 49.487,99.951C49.571,100.017 49.641,100.087 49.641,100.105C49.641,100.178 49.568,100.131 49.453,99.984L49.453,99.984ZM163.544,98.375C163.93,97.987 164.265,97.669 164.29,97.669C164.314,97.669 164.018,97.987 163.632,98.375C163.246,98.763 162.911,99.08 162.887,99.08C162.862,99.08 163.158,98.763 163.544,98.375ZM103.33,98.665C103.44,98.644 103.599,98.645 103.683,98.667C103.767,98.689 103.678,98.706 103.484,98.705C103.29,98.704 103.221,98.686 103.33,98.665L103.33,98.665ZM105.931,98.667C106.016,98.644 106.155,98.644 106.24,98.667C106.325,98.689 106.255,98.707 106.085,98.707C105.916,98.707 105.846,98.689 105.931,98.667ZM47.739,98.353L47.48,98.066L47.767,98.325C47.924,98.467 48.053,98.596 48.053,98.612C48.053,98.68 47.981,98.62 47.739,98.353ZM101.042,98.579C101.105,98.553 101.181,98.557 101.211,98.586C101.24,98.615 101.188,98.636 101.095,98.632C100.992,98.628 100.971,98.607 101.042,98.579L101.042,98.579ZM51.705,98.353L51.537,98.154L51.735,98.322C51.845,98.415 51.934,98.504 51.934,98.521C51.934,98.591 51.863,98.539 51.705,98.353ZM49.639,96.368L48.803,95.508L49.663,96.344C50.462,97.121 50.563,97.228 50.499,97.228C50.486,97.228 50.099,96.841 49.639,96.368ZM165.264,96.577C165.264,96.559 165.333,96.49 165.418,96.423C165.558,96.313 165.561,96.317 165.451,96.456C165.336,96.603 165.264,96.65 165.264,96.577L165.264,96.577ZM162.35,95.795C162.715,95.406 162.794,95.336 162.794,95.402C162.794,95.416 162.606,95.604 162.375,95.821L161.957,96.214L162.35,95.795ZM104.608,96.018C104.741,95.998 104.96,95.998 105.093,96.018C105.227,96.039 105.117,96.055 104.851,96.055C104.584,96.055 104.475,96.039 104.608,96.018ZM164.117,93.932C164.117,93.913 164.187,93.844 164.272,93.777C164.411,93.668 164.415,93.671 164.305,93.811C164.19,93.957 164.117,94.004 164.117,93.932L164.117,93.932ZM144.45,87.229C144.45,87.21 144.519,87.141 144.604,87.074C144.744,86.965 144.747,86.968 144.638,87.108C144.522,87.255 144.45,87.301 144.45,87.229L144.45,87.229ZM142.113,85.322C142.352,85.079 142.567,84.881 142.591,84.881C142.615,84.881 142.44,85.079 142.201,85.322C141.962,85.564 141.747,85.763 141.723,85.763C141.698,85.763 141.874,85.564 142.113,85.322ZM67.933,85.123L67.765,84.925L67.963,85.093C68.072,85.185 68.162,85.275 68.162,85.291C68.162,85.362 68.091,85.31 67.933,85.123ZM139.555,84.087C139.643,83.99 139.735,83.911 139.759,83.911C139.783,83.911 139.731,83.99 139.643,84.087C139.556,84.184 139.464,84.263 139.44,84.263C139.415,84.263 139.467,84.184 139.555,84.087ZM70.796,84.021C70.687,83.881 70.69,83.878 70.83,83.988C70.976,84.103 71.023,84.175 70.951,84.175C70.932,84.175 70.863,84.106 70.796,84.021L70.796,84.021ZM143.392,83.966C143.392,83.947 143.461,83.878 143.546,83.811C143.686,83.702 143.689,83.705 143.579,83.845C143.464,83.991 143.392,84.038 143.392,83.966L143.392,83.966ZM140.966,82.676C141.054,82.579 141.146,82.5 141.17,82.5C141.194,82.5 141.142,82.579 141.054,82.676C140.967,82.773 140.875,82.852 140.851,82.852C140.826,82.852 140.878,82.773 140.966,82.676ZM31.995,76.877L31.781,76.635L32.024,76.848C32.251,77.048 32.307,77.12 32.238,77.12C32.222,77.12 32.113,77.011 31.995,76.877ZM33.137,74.32C33.028,74.18 33.031,74.177 33.171,74.286C33.255,74.353 33.325,74.422 33.325,74.441C33.325,74.513 33.252,74.466 33.137,74.32L33.137,74.32ZM176.383,73.629C176.387,73.526 176.408,73.505 176.437,73.575C176.462,73.639 176.459,73.715 176.43,73.744C176.4,73.774 176.379,73.722 176.383,73.629L176.383,73.629ZM36.627,72.776L36.368,72.49L36.654,72.749C36.812,72.891 36.941,73.02 36.941,73.035C36.941,73.103 36.868,73.043 36.627,72.776ZM162.905,72.203C164.299,72.189 166.581,72.189 167.976,72.203C169.37,72.217 168.229,72.228 165.44,72.228C162.651,72.228 161.51,72.217 162.905,72.203ZM56.188,68.829C56.188,68.66 56.206,68.59 56.228,68.675C56.25,68.76 56.25,68.899 56.228,68.984C56.206,69.069 56.188,68.999 56.188,68.829ZM56.19,67.815C56.19,67.621 56.209,67.552 56.23,67.662C56.251,67.772 56.25,67.93 56.228,68.015C56.206,68.099 56.189,68.009 56.189,67.815L56.19,67.815ZM34.56,63.681C34.56,63.663 34.629,63.593 34.714,63.527C34.854,63.417 34.857,63.42 34.747,63.56C34.632,63.707 34.56,63.753 34.56,63.681ZM31.958,62.568C32.197,62.325 32.412,62.127 32.436,62.127C32.461,62.127 32.285,62.325 32.046,62.568C31.807,62.81 31.592,63.009 31.568,63.009C31.543,63.009 31.719,62.81 31.958,62.568ZM68.867,53.098C68.867,53.079 68.937,53.01 69.022,52.943C69.161,52.834 69.165,52.837 69.055,52.977C68.94,53.123 68.867,53.17 68.867,53.098ZM67.015,50.97C67.279,50.703 67.514,50.485 67.538,50.485C67.563,50.485 67.367,50.703 67.103,50.97C66.84,51.237 66.604,51.455 66.58,51.455C66.556,51.455 66.752,51.237 67.015,50.97ZM64.634,48.864C64.634,48.846 64.703,48.776 64.788,48.71C64.928,48.6 64.931,48.603 64.822,48.743C64.706,48.89 64.634,48.937 64.634,48.864L64.634,48.864ZM65.78,47.718C65.78,47.699 65.85,47.63 65.935,47.563C66.075,47.454 66.078,47.457 65.968,47.597C65.853,47.744 65.78,47.79 65.78,47.718L65.78,47.718ZM53.521,40.387C53.686,40.217 53.84,40.078 53.865,40.078C53.889,40.078 53.774,40.217 53.61,40.387C53.445,40.557 53.291,40.695 53.266,40.695C53.242,40.695 53.357,40.557 53.521,40.387ZM102.541,39.665C102.605,39.64 102.681,39.643 102.71,39.672C102.739,39.701 102.687,39.722 102.594,39.718C102.492,39.714 102.471,39.693 102.541,39.665L102.541,39.665ZM107.656,39.665C107.72,39.64 107.796,39.643 107.825,39.672C107.855,39.701 107.803,39.722 107.71,39.718C107.607,39.714 107.586,39.693 107.656,39.665L107.656,39.665ZM165.694,38.865C165.584,38.726 165.587,38.722 165.727,38.832C165.812,38.899 165.881,38.968 165.881,38.986C165.881,39.059 165.809,39.012 165.694,38.865ZM50.964,38.27C51.276,37.955 51.552,37.697 51.576,37.697C51.6,37.697 51.364,37.955 51.052,38.27C50.739,38.585 50.464,38.843 50.44,38.843C50.415,38.843 50.651,38.585 50.964,38.27ZM161.196,38.424C161.086,38.285 161.089,38.281 161.229,38.391C161.314,38.458 161.383,38.527 161.383,38.545C161.383,38.618 161.311,38.571 161.196,38.424L161.196,38.424ZM160.314,37.631C160.204,37.491 160.207,37.488 160.347,37.597C160.432,37.664 160.501,37.733 160.501,37.752C160.501,37.824 160.429,37.778 160.314,37.631L160.314,37.631ZM48.142,37.212C48.255,37.09 48.369,36.991 48.393,36.991C48.417,36.991 48.344,37.09 48.23,37.212C48.116,37.333 48.003,37.432 47.979,37.432C47.954,37.432 48.028,37.333 48.142,37.212ZM103.64,36.93C103.725,36.908 103.844,36.909 103.904,36.933C103.964,36.958 103.894,36.976 103.748,36.974C103.603,36.972 103.554,36.953 103.64,36.93L103.64,36.93ZM107.167,36.93C107.253,36.908 107.372,36.909 107.432,36.933C107.492,36.958 107.421,36.976 107.276,36.974C107.13,36.972 107.082,36.953 107.167,36.93L107.167,36.93ZM163.136,36.308C163.026,36.168 163.029,36.165 163.169,36.274C163.254,36.341 163.324,36.41 163.324,36.429C163.324,36.501 163.251,36.455 163.136,36.308ZM49.905,35.448C50.019,35.327 50.132,35.227 50.157,35.227C50.181,35.227 50.108,35.327 49.994,35.448C49.88,35.569 49.767,35.668 49.742,35.668C49.718,35.668 49.792,35.569 49.905,35.448ZM110.655,34.197C110.719,34.172 110.795,34.175 110.824,34.204C110.853,34.233 110.801,34.254 110.708,34.25C110.605,34.246 110.585,34.225 110.655,34.197L110.655,34.197ZM109.156,34.109C109.219,34.083 109.295,34.086 109.325,34.116C109.354,34.145 109.302,34.166 109.209,34.162C109.106,34.158 109.085,34.137 109.156,34.109L109.156,34.109ZM110.302,22.114C110.366,22.089 110.442,22.092 110.471,22.121C110.5,22.151 110.448,22.172 110.355,22.168C110.253,22.163 110.232,22.143 110.302,22.114L110.302,22.114ZM108.626,22.026C108.69,22.001 108.766,22.004 108.795,22.033C108.825,22.062 108.773,22.083 108.68,22.079C108.577,22.075 108.556,22.054 108.626,22.026L108.626,22.026ZM102.448,21.936C102.558,21.915 102.717,21.916 102.801,21.938C102.885,21.96 102.796,21.977 102.602,21.976C102.408,21.975 102.339,21.957 102.448,21.936L102.448,21.936ZM105.8,21.936C105.909,21.915 106.068,21.916 106.152,21.938C106.237,21.96 106.147,21.977 105.953,21.976C105.759,21.975 105.69,21.957 105.8,21.936L105.8,21.936ZM99.895,19.116C99.959,19.09 100.035,19.093 100.064,19.123C100.094,19.152 100.041,19.173 99.948,19.169C99.846,19.165 99.825,19.144 99.895,19.116L99.895,19.116ZM108.891,19.116C108.955,19.09 109.031,19.093 109.06,19.123C109.089,19.152 109.037,19.173 108.944,19.169C108.842,19.165 108.821,19.144 108.891,19.116L108.891,19.116ZM102.844,19.025C102.978,19.004 103.196,19.004 103.329,19.025C103.463,19.045 103.353,19.061 103.087,19.061C102.82,19.061 102.711,19.045 102.844,19.025ZM105.49,19.025C105.623,19.004 105.842,19.004 105.975,19.025C106.108,19.045 105.999,19.061 105.733,19.061C105.466,19.061 105.357,19.045 105.49,19.025ZM109.42,16.382C109.484,16.356 109.56,16.359 109.589,16.389C109.619,16.418 109.566,16.439 109.473,16.435C109.371,16.431 109.35,16.41 109.42,16.382L109.42,16.382ZM100.948,16.295C101.009,16.271 101.108,16.271 101.168,16.295C101.229,16.32 101.179,16.34 101.058,16.34C100.937,16.34 100.887,16.32 100.948,16.295ZM107.21,16.295C107.27,16.271 107.37,16.271 107.43,16.295C107.491,16.32 107.441,16.34 107.32,16.34C107.199,16.34 107.149,16.32 107.21,16.295Z" style="fill:rgb(140,140,140);fill-rule:nonzero;"/>
            <path id="path32" d="M101.698,119.657C101.783,119.635 101.921,119.635 102.006,119.657C102.091,119.679 102.022,119.697 101.852,119.697C101.682,119.697 101.613,119.679 101.698,119.657ZM108.136,119.657C108.221,119.635 108.36,119.635 108.445,119.657C108.529,119.679 108.46,119.697 108.29,119.697C108.12,119.697 108.051,119.679 108.136,119.657ZM99.013,119.569C99.077,119.544 99.153,119.547 99.182,119.576C99.212,119.606 99.159,119.626 99.067,119.623C98.964,119.619 98.943,119.597 99.013,119.569L99.013,119.569ZM110.919,119.569C110.983,119.544 111.059,119.547 111.089,119.576C111.118,119.606 111.066,119.626 110.973,119.623C110.87,119.619 110.849,119.597 110.919,119.569L110.919,119.569ZM112.595,119.481C112.659,119.456 112.735,119.459 112.764,119.488C112.794,119.517 112.741,119.538 112.648,119.534C112.546,119.53 112.525,119.509 112.595,119.481L112.595,119.481ZM102.493,117.099C102.579,117.077 102.698,117.078 102.758,117.102C102.817,117.126 102.747,117.144 102.602,117.143C102.456,117.141 102.407,117.121 102.493,117.099L102.493,117.099ZM107.608,117.099C107.694,117.077 107.813,117.078 107.873,117.102C107.933,117.126 107.862,117.144 107.717,117.143C107.571,117.141 107.523,117.121 107.608,117.099L107.608,117.099ZM99.983,117.012C100.047,116.986 100.123,116.989 100.152,117.019C100.182,117.048 100.13,117.069 100.037,117.065C99.934,117.061 99.913,117.04 99.983,117.012L99.983,117.012ZM111.801,116.923C111.865,116.898 111.941,116.901 111.97,116.93C112,116.96 111.948,116.981 111.855,116.977C111.752,116.973 111.731,116.952 111.801,116.923L111.801,116.923ZM100.926,113.72C91.578,113.229 83.564,111.719 76.364,109.094C69.369,106.544 66.069,104.865 60.476,101.014C57.537,98.991 53.286,95.321 51.124,92.939C48.272,89.799 46.278,87.029 43.638,82.54C40.988,78.035 39.805,76.275 38.223,74.478C36.364,72.367 35.266,71.411 33.613,70.465L32.799,69.999L34.01,69.089C35.352,68.08 37.365,66.13 38.001,65.223C38.218,64.913 38.567,64.437 38.777,64.165C39.99,62.587 41.059,60.657 42.761,56.967C43.998,54.289 45.493,51.283 46.25,49.956C49.128,44.911 53.152,40.296 57.975,36.509C61.618,33.648 66.043,31.022 71.425,28.527C78.45,25.269 87.02,23.101 95.987,22.314C101.342,21.843 107.22,21.842 112.612,22.311C124.023,23.304 135.818,26.368 144.015,30.469C147.049,31.987 152.253,35.304 155.474,37.774C158.21,39.872 161.102,42.518 162.57,44.267L163.162,44.973L140.983,45.018L140.313,44.504C135.36,40.704 129.476,37.947 122.71,36.258C117.451,34.946 114.332,34.432 109.969,34.16C107.831,34.027 101.708,34.107 99.735,34.294C87.372,35.466 77.827,38.723 69.649,44.561C65.98,47.18 63.011,50.299 60.675,53.987C55.74,61.779 54.868,70.077 58.194,77.605C59.982,81.651 62.911,85.431 67.018,88.988C71.518,92.887 75.558,95.3 81.29,97.514C83.651,98.426 86.761,99.484 88.05,99.814C96.641,102.014 107.661,102.385 117.154,100.794C121.931,99.994 127.995,98.06 132.326,95.957C136.04,94.153 138.419,92.564 142.166,89.38C145.485,86.559 149.228,82.026 150.85,78.862L151.336,77.913L160.417,77.913C168.606,77.913 169.497,77.927 169.497,78.052C169.497,78.308 169.063,79.905 168.745,80.819C167.334,84.871 164.628,88.761 159.928,93.489C154.35,99.101 149.811,102.305 141.716,106.344C133.599,110.394 124.304,112.716 112.7,113.594C110.588,113.753 103.094,113.834 100.926,113.72L100.926,113.72ZM104.303,98.662C104.608,98.645 105.084,98.645 105.361,98.662C105.638,98.679 105.389,98.694 104.807,98.693C104.224,98.693 103.998,98.679 104.303,98.662L104.303,98.662ZM108.185,98.579C108.249,98.553 108.325,98.557 108.354,98.586C108.384,98.615 108.332,98.636 108.239,98.632C108.136,98.628 108.115,98.607 108.185,98.579L108.185,98.579ZM50.6,97.338C50.49,97.198 50.493,97.195 50.633,97.305C50.78,97.42 50.827,97.493 50.754,97.493C50.736,97.493 50.666,97.423 50.6,97.338L50.6,97.338ZM161.736,96.39C161.85,96.269 161.963,96.17 161.987,96.17C162.012,96.17 161.938,96.269 161.824,96.39C161.71,96.511 161.597,96.611 161.573,96.611C161.549,96.611 161.622,96.511 161.736,96.39ZM103.816,96.018C103.95,95.998 104.148,95.999 104.256,96.019C104.365,96.04 104.255,96.057 104.013,96.056C103.77,96.055 103.681,96.039 103.816,96.018L103.816,96.018ZM105.49,96.018C105.623,95.998 105.842,95.998 105.975,96.018C106.108,96.038 105.999,96.055 105.733,96.055C105.466,96.055 105.357,96.038 105.49,96.018ZM108.362,95.933C108.426,95.908 108.502,95.911 108.531,95.94C108.56,95.969 108.508,95.99 108.415,95.986C108.312,95.982 108.291,95.961 108.362,95.933L108.362,95.933ZM162.971,95.156C163.085,95.034 163.198,94.935 163.222,94.935C163.246,94.935 163.173,95.034 163.059,95.156C162.945,95.277 162.832,95.376 162.808,95.376C162.783,95.376 162.857,95.277 162.971,95.156ZM32.436,77.318L32.222,77.076L32.465,77.289C32.692,77.489 32.748,77.561 32.679,77.561C32.663,77.561 32.554,77.452 32.436,77.318ZM176.393,73.283C176.395,73.138 176.415,73.089 176.437,73.175C176.46,73.261 176.458,73.38 176.434,73.439C176.41,73.499 176.392,73.429 176.394,73.283L176.393,73.283ZM152.85,72.203C154.245,72.189 156.527,72.189 157.922,72.203C159.316,72.217 158.175,72.228 155.386,72.228C152.597,72.228 151.456,72.217 152.85,72.203ZM21.426,70.542C21.43,70.439 21.451,70.418 21.479,70.489C21.504,70.552 21.501,70.628 21.472,70.658C21.443,70.687 21.422,70.635 21.426,70.542L21.426,70.542ZM146.897,47.949C150.936,47.937 157.543,47.937 161.582,47.949C165.62,47.962 162.316,47.973 154.239,47.973C146.163,47.973 142.859,47.962 146.897,47.949ZM102.276,39.665C102.34,39.64 102.416,39.643 102.445,39.672C102.475,39.701 102.423,39.722 102.33,39.718C102.227,39.714 102.206,39.693 102.276,39.665L102.276,39.665ZM107.921,39.665C107.985,39.64 108.061,39.643 108.09,39.672C108.119,39.701 108.067,39.722 107.974,39.718C107.871,39.714 107.851,39.693 107.921,39.665L107.921,39.665ZM50.17,39.075C50.17,39.056 50.239,38.987 50.324,38.92C50.464,38.811 50.467,38.814 50.358,38.954C50.242,39.101 50.17,39.147 50.17,39.075ZM51.581,37.664C51.581,37.645 51.651,37.576 51.735,37.509C51.875,37.399 51.878,37.403 51.769,37.542C51.654,37.689 51.581,37.736 51.581,37.664ZM48.406,36.964C48.406,36.948 48.535,36.82 48.693,36.677L48.979,36.418L48.72,36.705C48.479,36.972 48.406,37.032 48.406,36.964ZM104.079,36.93C104.164,36.908 104.303,36.908 104.388,36.93C104.472,36.953 104.403,36.971 104.233,36.971C104.063,36.971 103.994,36.953 104.079,36.93ZM106.637,36.93C106.721,36.908 106.86,36.908 106.945,36.93C107.03,36.953 106.961,36.971 106.791,36.971C106.621,36.971 106.552,36.953 106.637,36.93ZM49.2,36.17C49.2,36.155 49.329,36.026 49.487,35.883L49.773,35.624L49.514,35.911C49.273,36.178 49.2,36.238 49.2,36.17ZM99.631,19.116C99.694,19.09 99.77,19.093 99.8,19.123C99.829,19.152 99.777,19.173 99.684,19.169C99.581,19.165 99.56,19.144 99.631,19.116L99.631,19.116ZM102.227,19.027C102.312,19.005 102.451,19.005 102.535,19.027C102.62,19.049 102.551,19.067 102.381,19.067C102.211,19.067 102.142,19.049 102.227,19.027ZM106.284,19.027C106.369,19.005 106.508,19.005 106.592,19.027C106.677,19.049 106.608,19.067 106.438,19.067C106.268,19.067 106.199,19.049 106.284,19.027ZM99.101,16.382C99.165,16.356 99.241,16.359 99.27,16.389C99.3,16.418 99.248,16.439 99.155,16.435C99.052,16.431 99.031,16.41 99.101,16.382L99.101,16.382ZM101.347,16.293C101.432,16.27 101.551,16.272 101.611,16.296C101.671,16.32 101.601,16.338 101.455,16.337C101.31,16.335 101.261,16.315 101.347,16.293L101.347,16.293ZM106.857,16.295C106.918,16.271 107.017,16.271 107.077,16.295C107.138,16.32 107.088,16.34 106.967,16.34C106.846,16.34 106.796,16.32 106.857,16.295Z" style="fill:rgb(230,65,0);fill-rule:nonzero;"/>
            <path id="path30" d="M102.272,119.655C102.382,119.634 102.54,119.635 102.625,119.657C102.709,119.679 102.62,119.697 102.425,119.696C102.231,119.695 102.162,119.677 102.272,119.656L102.272,119.655ZM107.697,119.656C107.782,119.634 107.901,119.635 107.961,119.659C108.021,119.683 107.951,119.702 107.805,119.7C107.66,119.698 107.611,119.678 107.697,119.656L107.697,119.656ZM99.278,119.569C99.341,119.543 99.418,119.547 99.447,119.576C99.476,119.605 99.424,119.626 99.331,119.622C99.228,119.618 99.207,119.597 99.278,119.569L99.278,119.569ZM97.426,119.481C97.489,119.455 97.565,119.458 97.595,119.488C97.624,119.517 97.572,119.538 97.479,119.534C97.376,119.53 97.355,119.509 97.426,119.481L97.426,119.481ZM102.052,117.099C102.138,117.076 102.257,117.078 102.317,117.102C102.376,117.126 102.306,117.144 102.161,117.142C102.015,117.14 101.966,117.121 102.052,117.098L102.052,117.099ZM108.004,117.102C108.064,117.077 108.163,117.077 108.224,117.102C108.285,117.126 108.235,117.146 108.114,117.146C107.993,117.146 107.943,117.126 108.004,117.102ZM103.287,96.02C103.373,95.998 103.492,96 103.551,96.024C103.611,96.048 103.541,96.066 103.395,96.064C103.25,96.063 103.201,96.043 103.287,96.021L103.287,96.02ZM106.285,96.02C106.371,95.998 106.49,96 106.55,96.024C106.61,96.048 106.54,96.066 106.394,96.064C106.248,96.063 106.2,96.043 106.285,96.021L106.285,96.02ZM155.106,74.761C158.518,74.748 164.074,74.748 167.453,74.761C170.833,74.773 168.042,74.784 161.251,74.784C154.46,74.784 151.695,74.773 155.106,74.761ZM176.393,72.842C176.395,72.697 176.415,72.648 176.437,72.734C176.46,72.82 176.458,72.939 176.434,72.998C176.41,73.058 176.392,72.988 176.394,72.842L176.393,72.842ZM147.691,72.203C148.188,72.188 149.002,72.188 149.499,72.203C149.996,72.219 149.589,72.232 148.595,72.232C147.601,72.232 147.194,72.219 147.691,72.203ZM108.891,37.019C108.955,36.994 109.031,36.997 109.06,37.026C109.089,37.056 109.037,37.076 108.944,37.073C108.842,37.068 108.821,37.047 108.891,37.019L108.891,37.019ZM105.008,36.926C105.313,36.909 105.79,36.909 106.067,36.926C106.344,36.944 106.094,36.958 105.512,36.958C104.93,36.957 104.703,36.943 105.008,36.926L105.008,36.926ZM109.332,19.116C109.396,19.09 109.472,19.093 109.501,19.123C109.53,19.152 109.478,19.173 109.385,19.169C109.283,19.165 109.262,19.144 109.332,19.116L109.332,19.116ZM101.788,19.027C101.873,19.004 101.992,19.006 102.052,19.03C102.112,19.054 102.042,19.072 101.896,19.071C101.751,19.069 101.702,19.049 101.788,19.027L101.788,19.027ZM106.815,19.027C106.9,19.004 107.019,19.006 107.079,19.03C107.139,19.054 107.069,19.072 106.923,19.071C106.778,19.069 106.729,19.049 106.815,19.027L106.815,19.027ZM101.788,16.293C101.873,16.27 101.992,16.272 102.052,16.296C102.112,16.32 102.042,16.338 101.896,16.337C101.751,16.335 101.702,16.315 101.788,16.293L101.788,16.293ZM106.372,16.293C106.457,16.271 106.596,16.271 106.681,16.293C106.766,16.315 106.696,16.333 106.526,16.333C106.357,16.333 106.287,16.315 106.372,16.293Z" style="fill:rgb(96,96,96);fill-rule:nonzero;"/>
            <path id="path28" d="M102.978,119.654C103.137,119.634 103.375,119.635 103.507,119.655C103.64,119.675 103.51,119.691 103.219,119.69C102.928,119.689 102.82,119.673 102.978,119.654L102.978,119.654ZM106.901,119.655C107.035,119.634 107.253,119.634 107.386,119.655C107.52,119.675 107.41,119.691 107.144,119.691C106.877,119.691 106.768,119.675 106.901,119.655ZM99.542,119.569C99.606,119.544 99.682,119.547 99.711,119.576C99.741,119.606 99.689,119.627 99.596,119.623C99.493,119.619 99.472,119.598 99.542,119.569L99.542,119.569ZM110.385,119.571C110.445,119.547 110.545,119.547 110.605,119.571C110.666,119.596 110.616,119.616 110.495,119.616C110.374,119.616 110.324,119.596 110.385,119.571ZM101.654,117.102C101.714,117.077 101.813,117.077 101.874,117.102C101.935,117.126 101.885,117.146 101.764,117.146C101.643,117.146 101.593,117.126 101.654,117.102ZM108.356,117.102C108.417,117.077 108.516,117.077 108.577,117.102C108.637,117.126 108.588,117.146 108.467,117.146C108.345,117.146 108.296,117.126 108.356,117.102ZM110.567,117.012C110.63,116.986 110.706,116.989 110.736,117.019C110.765,117.048 110.713,117.069 110.62,117.065C110.517,117.061 110.496,117.04 110.567,117.012L110.567,117.012ZM50.776,101.131C50.666,100.991 50.67,100.988 50.809,101.097C50.956,101.213 51.003,101.285 50.93,101.285C50.912,101.285 50.843,101.216 50.776,101.131L50.776,101.131ZM54.216,100.602C54.106,100.462 54.109,100.459 54.249,100.568C54.396,100.683 54.443,100.756 54.37,100.756C54.352,100.756 54.282,100.686 54.216,100.602ZM161.119,100.634C161.119,100.616 161.188,100.547 161.273,100.48C161.413,100.37 161.416,100.373 161.306,100.513C161.191,100.66 161.119,100.707 161.119,100.634L161.119,100.634ZM49.982,100.425C49.873,100.285 49.876,100.282 50.016,100.392C50.101,100.458 50.17,100.528 50.17,100.546C50.17,100.619 50.098,100.572 49.982,100.425L49.982,100.425ZM162.133,99.698C162.221,99.601 162.312,99.521 162.337,99.521C162.361,99.521 162.309,99.601 162.221,99.698C162.133,99.795 162.042,99.874 162.017,99.874C161.993,99.874 162.045,99.795 162.133,99.698ZM48.929,99.455L48.715,99.212L48.957,99.426C49.184,99.626 49.24,99.698 49.171,99.698C49.155,99.698 49.046,99.588 48.929,99.455ZM52.981,99.543C52.871,99.403 52.874,99.4 53.014,99.51C53.161,99.625 53.208,99.698 53.135,99.698C53.117,99.698 53.048,99.628 52.981,99.543L52.981,99.543ZM52.146,98.794L51.978,98.595L52.176,98.763C52.286,98.855 52.375,98.945 52.375,98.962C52.375,99.032 52.304,98.98 52.146,98.794ZM101.659,98.579C101.723,98.553 101.799,98.557 101.828,98.586C101.857,98.615 101.805,98.636 101.712,98.632C101.61,98.628 101.589,98.607 101.659,98.579L101.659,98.579ZM107.833,98.579C107.896,98.553 107.972,98.557 108.002,98.586C108.031,98.615 107.979,98.636 107.886,98.632C107.783,98.628 107.762,98.607 107.833,98.579L107.833,98.579ZM159.531,98.429C159.531,98.411 159.601,98.342 159.685,98.275C159.825,98.165 159.828,98.169 159.719,98.308C159.604,98.455 159.531,98.502 159.531,98.429L159.531,98.429ZM51.002,97.735L50.743,97.449L51.03,97.708C51.297,97.949 51.357,98.022 51.289,98.022C51.274,98.022 51.145,97.893 51.002,97.735ZM160.413,97.636C160.413,97.617 160.483,97.548 160.567,97.481C160.707,97.372 160.71,97.375 160.601,97.515C160.486,97.662 160.413,97.708 160.413,97.636L160.413,97.636ZM46.678,97.206L46.51,97.008L46.708,97.176C46.895,97.333 46.947,97.404 46.876,97.404C46.86,97.404 46.77,97.315 46.678,97.206ZM164.911,96.919C165.025,96.798 165.138,96.699 165.162,96.699C165.186,96.699 165.113,96.798 164.999,96.919C164.885,97.041 164.772,97.14 164.748,97.14C164.724,97.14 164.797,97.041 164.911,96.919ZM161.295,96.842C161.295,96.824 161.365,96.754 161.449,96.688C161.589,96.578 161.592,96.581 161.483,96.721C161.367,96.868 161.295,96.915 161.295,96.842L161.295,96.842ZM102.888,96.023C102.949,95.999 103.048,95.999 103.109,96.023C103.169,96.048 103.12,96.068 102.999,96.068C102.877,96.068 102.828,96.048 102.888,96.023ZM106.681,96.023C106.741,95.999 106.84,95.999 106.901,96.023C106.962,96.048 106.912,96.068 106.791,96.068C106.67,96.068 106.62,96.048 106.681,96.023ZM165.837,95.905C165.925,95.808 166.017,95.729 166.041,95.729C166.065,95.729 166.013,95.808 165.925,95.905C165.837,96.002 165.746,96.082 165.722,96.082C165.697,96.082 165.749,96.002 165.837,95.905ZM108.715,95.933C108.778,95.908 108.854,95.911 108.884,95.94C108.913,95.969 108.861,95.99 108.768,95.986C108.665,95.982 108.644,95.961 108.715,95.933L108.715,95.933ZM48.399,95.133L48.186,94.891L48.428,95.105C48.655,95.305 48.711,95.376 48.642,95.376C48.626,95.376 48.517,95.267 48.399,95.133ZM166.499,95.166C166.499,95.148 166.568,95.079 166.653,95.012C166.793,94.902 166.796,94.905 166.686,95.045C166.571,95.192 166.499,95.239 166.499,95.166L166.499,95.166ZM44.603,94.781C44.493,94.641 44.496,94.638 44.636,94.747C44.721,94.814 44.79,94.883 44.79,94.902C44.79,94.974 44.718,94.928 44.603,94.781L44.603,94.781ZM163.5,94.626C163.664,94.457 163.819,94.318 163.843,94.318C163.867,94.318 163.753,94.457 163.588,94.626C163.424,94.796 163.269,94.935 163.245,94.935C163.221,94.935 163.335,94.796 163.5,94.626ZM164.602,93.436C164.69,93.339 164.782,93.259 164.806,93.259C164.83,93.259 164.778,93.339 164.691,93.436C164.603,93.533 164.511,93.612 164.487,93.612C164.463,93.612 164.515,93.533 164.602,93.436ZM168.615,92.697C168.615,92.679 168.685,92.609 168.77,92.543C168.909,92.433 168.913,92.436 168.803,92.576C168.688,92.723 168.615,92.769 168.615,92.697L168.615,92.697ZM140.966,86.38C141.054,86.283 141.146,86.204 141.17,86.204C141.194,86.204 141.142,86.283 141.054,86.38C140.967,86.477 140.875,86.557 140.851,86.557C140.826,86.557 140.878,86.477 140.966,86.38ZM69.297,86.314C69.187,86.174 69.19,86.171 69.33,86.281C69.415,86.347 69.485,86.417 69.485,86.435C69.485,86.508 69.412,86.461 69.297,86.314L69.297,86.314ZM68.55,85.653L68.382,85.454L68.581,85.622C68.767,85.78 68.819,85.851 68.749,85.851C68.732,85.851 68.643,85.762 68.55,85.653ZM71.855,84.991C71.745,84.851 71.748,84.848 71.888,84.958C72.035,85.073 72.082,85.145 72.009,85.145C71.991,85.145 71.921,85.076 71.855,84.991L71.855,84.991ZM67.057,84.241L66.53,83.69L67.081,84.217C67.593,84.706 67.673,84.793 67.608,84.793C67.594,84.793 67.346,84.545 67.057,84.241ZM138.982,84.671C138.982,84.653 139.051,84.583 139.136,84.517C139.276,84.407 139.279,84.41 139.169,84.55C139.054,84.697 138.982,84.744 138.982,84.671L138.982,84.671ZM71.149,84.374C71.039,84.234 71.042,84.231 71.182,84.34C71.329,84.456 71.376,84.528 71.303,84.528C71.285,84.528 71.216,84.459 71.149,84.374L71.149,84.374ZM143.083,84.263C143.171,84.166 143.262,84.087 143.287,84.087C143.311,84.087 143.259,84.166 143.171,84.263C143.083,84.361 142.992,84.44 142.967,84.44C142.943,84.44 142.995,84.361 143.083,84.263ZM69.703,83.007L69.088,82.367L69.727,82.982C70.079,83.321 70.367,83.608 70.367,83.622C70.367,83.686 70.274,83.601 69.703,83.007ZM141.363,82.29C141.363,82.272 141.433,82.202 141.517,82.136C141.657,82.026 141.66,82.029 141.551,82.169C141.436,82.316 141.363,82.363 141.363,82.29L141.363,82.29ZM32.965,77.847L32.752,77.605L32.994,77.819C33.221,78.018 33.277,78.09 33.208,78.09C33.192,78.09 33.083,77.981 32.965,77.847ZM31.292,76.083L30.988,75.753L31.318,76.057C31.5,76.224 31.649,76.373 31.649,76.387C31.649,76.455 31.575,76.391 31.292,76.083ZM34.072,75.246L33.369,74.518L34.097,75.221C34.497,75.608 34.824,75.936 34.824,75.949C34.824,76.013 34.726,75.921 34.072,75.246ZM32.696,73.967C32.587,73.827 32.59,73.824 32.73,73.933C32.876,74.049 32.923,74.121 32.851,74.121C32.832,74.121 32.763,74.052 32.696,73.967L32.696,73.967ZM176.39,72.445C176.39,72.324 176.41,72.275 176.435,72.335C176.459,72.396 176.459,72.495 176.435,72.556C176.41,72.616 176.39,72.567 176.39,72.445ZM62.635,67.771C62.635,67.407 62.651,67.258 62.67,67.44C62.689,67.622 62.689,67.92 62.67,68.102C62.651,68.284 62.635,68.135 62.635,67.771ZM59.878,66.661C59.883,66.559 59.904,66.538 59.932,66.608C59.957,66.672 59.954,66.748 59.925,66.777C59.895,66.806 59.875,66.754 59.878,66.661L59.878,66.661ZM32.09,66.062C32.09,66.044 32.16,65.974 32.245,65.908C32.384,65.798 32.388,65.801 32.278,65.941C32.163,66.088 32.09,66.135 32.09,66.062L32.09,66.062ZM33.678,64.552C34.088,64.14 34.443,63.802 34.468,63.802C34.492,63.802 34.176,64.14 33.766,64.552C33.356,64.964 33,65.302 32.976,65.302C32.952,65.302 33.268,64.964 33.678,64.552ZM31.208,63.328C31.208,63.31 31.278,63.24 31.363,63.174C31.502,63.064 31.506,63.067 31.396,63.207C31.281,63.354 31.208,63.401 31.208,63.328L31.208,63.328ZM34.912,63.24C34.912,63.222 34.982,63.152 35.067,63.086C35.207,62.976 35.21,62.979 35.1,63.119C34.985,63.266 34.912,63.313 34.912,63.24L34.912,63.24ZM68.514,53.45C68.514,53.432 68.584,53.363 68.669,53.296C68.809,53.186 68.812,53.189 68.702,53.329C68.587,53.476 68.514,53.523 68.514,53.45L68.514,53.45ZM65.78,52.293C65.894,52.172 66.007,52.073 66.032,52.073C66.056,52.073 65.983,52.172 65.869,52.293C65.755,52.414 65.642,52.513 65.617,52.513C65.593,52.513 65.667,52.414 65.78,52.293ZM69.881,51.984C70.17,51.693 70.425,51.455 70.449,51.455C70.473,51.455 70.258,51.693 69.97,51.984C69.682,52.275 69.426,52.513 69.402,52.513C69.378,52.513 69.593,52.275 69.881,51.984ZM138.093,50.242L137.879,50L138.122,50.214C138.255,50.331 138.364,50.44 138.364,50.456C138.364,50.525 138.293,50.469 138.093,50.242ZM68.338,49.735C68.452,49.614 68.565,49.515 68.589,49.515C68.614,49.515 68.54,49.614 68.426,49.735C68.312,49.857 68.199,49.956 68.175,49.956C68.151,49.956 68.224,49.857 68.338,49.735ZM69.22,48.952C69.22,48.934 69.289,48.865 69.374,48.798C69.514,48.688 69.517,48.691 69.408,48.831C69.292,48.978 69.22,49.025 69.22,48.952ZM164.459,41.688C164.349,41.548 164.352,41.545 164.492,41.654C164.577,41.721 164.646,41.79 164.646,41.809C164.646,41.881 164.574,41.835 164.459,41.688ZM48.23,41.191C48.23,41.173 48.299,41.104 48.384,41.037C48.524,40.927 48.527,40.93 48.417,41.07C48.302,41.217 48.23,41.264 48.23,41.191ZM162.705,39.836L161.78,38.887L162.728,39.812C163.25,40.32 163.676,40.747 163.676,40.76C163.676,40.824 163.563,40.716 162.705,39.836ZM48.847,40.486C48.847,40.467 48.917,40.398 49.001,40.331C49.141,40.222 49.144,40.225 49.035,40.365C48.92,40.512 48.847,40.558 48.847,40.486L48.847,40.486ZM101.924,39.665C101.987,39.64 102.063,39.643 102.093,39.672C102.122,39.701 102.07,39.722 101.977,39.718C101.874,39.714 101.853,39.693 101.924,39.665L101.924,39.665ZM49.641,39.609C49.641,39.594 49.77,39.465 49.928,39.323L50.214,39.064L49.955,39.35C49.714,39.618 49.641,39.678 49.641,39.609ZM104.962,39.574C105.096,39.554 105.295,39.554 105.403,39.575C105.512,39.596 105.402,39.613 105.159,39.612C104.917,39.611 104.828,39.594 104.962,39.574ZM166.134,39.395C166.025,39.255 166.028,39.252 166.168,39.361C166.315,39.476 166.361,39.549 166.289,39.549C166.271,39.549 166.201,39.479 166.134,39.395L166.134,39.395ZM46.642,38.898C46.642,38.88 46.712,38.81 46.797,38.744C46.936,38.634 46.94,38.637 46.83,38.777C46.715,38.924 46.642,38.971 46.642,38.898L46.642,38.898ZM164.424,37.587L163.456,36.594L164.448,37.563C165.37,38.463 165.48,38.579 165.417,38.579C165.404,38.579 164.957,38.132 164.424,37.587ZM160.802,38.028L160.634,37.829L160.832,37.997C161.019,38.155 161.071,38.226 161,38.226C160.983,38.226 160.894,38.137 160.802,38.028ZM47.48,37.961C47.568,37.864 47.66,37.785 47.684,37.785C47.708,37.785 47.656,37.864 47.568,37.961C47.48,38.058 47.389,38.138 47.365,38.138C47.34,38.138 47.392,38.058 47.48,37.961ZM160.049,37.366C159.939,37.226 159.942,37.223 160.082,37.333C160.167,37.399 160.237,37.469 160.237,37.487C160.237,37.56 160.164,37.513 160.049,37.366ZM51.846,37.405C51.846,37.389 51.975,37.26 52.132,37.118L52.419,36.859L52.16,37.146C51.919,37.413 51.846,37.473 51.846,37.405ZM102.188,37.019C102.252,36.994 102.328,36.997 102.357,37.026C102.387,37.056 102.334,37.076 102.242,37.073C102.139,37.068 102.118,37.047 102.188,37.019L102.188,37.019ZM48.935,36.429C48.935,36.41 49.005,36.341 49.09,36.274C49.23,36.165 49.233,36.168 49.123,36.308C49.008,36.455 48.935,36.501 48.935,36.429L48.935,36.429ZM162.519,35.779C162.409,35.639 162.412,35.636 162.552,35.745C162.699,35.861 162.745,35.933 162.673,35.933C162.655,35.933 162.585,35.863 162.519,35.779ZM161.813,35.161C161.703,35.021 161.706,35.018 161.846,35.128C161.931,35.195 162.001,35.264 162.001,35.282C162.001,35.355 161.928,35.308 161.813,35.161ZM50.655,34.786C50.743,34.689 50.835,34.61 50.859,34.61C50.883,34.61 50.831,34.689 50.743,34.786C50.655,34.883 50.564,34.963 50.54,34.963C50.515,34.963 50.567,34.883 50.655,34.786ZM161.196,34.632C161.086,34.492 161.089,34.489 161.229,34.599C161.314,34.665 161.383,34.735 161.383,34.753C161.383,34.826 161.311,34.779 161.196,34.632L161.196,34.632ZM51.405,34.136C51.405,34.117 51.474,34.048 51.559,33.981C51.699,33.872 51.702,33.875 51.592,34.015C51.477,34.162 51.405,34.208 51.405,34.136ZM101.389,19.029C101.45,19.005 101.549,19.005 101.609,19.029C101.67,19.054 101.62,19.074 101.499,19.074C101.378,19.074 101.328,19.054 101.389,19.029ZM107.21,19.029C107.27,19.005 107.37,19.005 107.43,19.029C107.491,19.054 107.441,19.074 107.32,19.074C107.199,19.074 107.149,19.054 107.21,19.029ZM97.867,16.47C97.93,16.444 98.006,16.448 98.036,16.477C98.065,16.506 98.013,16.527 97.92,16.523C97.817,16.519 97.796,16.498 97.867,16.47L97.867,16.47ZM99.542,16.382C99.606,16.356 99.682,16.359 99.711,16.389C99.741,16.418 99.689,16.439 99.596,16.435C99.493,16.431 99.472,16.41 99.542,16.382L99.542,16.382ZM108.803,16.382C108.867,16.356 108.943,16.359 108.972,16.389C109.001,16.418 108.949,16.439 108.856,16.435C108.753,16.431 108.732,16.41 108.803,16.382L108.803,16.382ZM102.271,16.292C102.38,16.271 102.559,16.271 102.668,16.292C102.777,16.313 102.688,16.33 102.469,16.33C102.251,16.33 102.162,16.313 102.271,16.292ZM105.8,16.291C105.909,16.27 106.068,16.271 106.152,16.293C106.237,16.315 106.147,16.332 105.953,16.332C105.759,16.331 105.69,16.312 105.8,16.291L105.8,16.291Z" style="fill:rgb(73,73,73);fill-rule:nonzero;"/>
            <path id="path26" d="M102.381,119.658C95.322,119.549 88.3,118.793 82.802,117.549C78.873,116.66 74.806,115.312 71.896,113.936C71.419,113.711 70.453,113.296 69.749,113.015C63.363,110.465 56.71,106.26 50.539,100.875C48.983,99.517 46.623,97.171 45.894,96.258C45.603,95.894 45.076,95.266 44.721,94.863C43.197,93.13 41.586,90.95 40.6,89.291C40.413,88.975 39.837,88.043 39.319,87.218C38.802,86.393 38.011,85.084 37.561,84.308C36.561,82.58 34.95,80.142 34.181,79.192C33.341,78.155 31.257,75.975 30.547,75.392C28.416,73.642 24.725,71.844 22.212,71.333L21.463,71.18L21.492,70.291C21.508,69.803 21.548,69.376 21.58,69.344C21.613,69.312 22.138,69.071 22.747,68.809C25.548,67.602 29.551,64.954 31.754,62.85C33.85,60.848 36.805,56.044 39.279,50.617C41.335,46.104 43.41,42.795 46.383,39.284C51.528,33.211 58.903,27.853 67.015,24.297C67.719,23.989 68.974,23.428 69.806,23.05C75.38,20.518 80.98,18.841 87.742,17.681C93.256,16.734 98.199,16.329 104.233,16.329C112.257,16.33 119.043,17.072 127.513,18.874C131.601,19.744 133.496,20.255 136.821,21.384C145.16,24.215 153.441,28.556 159.531,33.289C163.284,36.205 166.696,39.695 168.994,42.968C170.369,44.927 171.653,47.297 172.527,49.493L172.922,50.485L138.439,50.485L137.49,49.669C131.184,44.253 120.517,40.501 109.216,39.723C107.418,39.6 102.923,39.598 101.146,39.72C93.185,40.268 85.263,42.299 79.282,45.326C70.782,49.627 64.8,56.365 63.151,63.494C62.485,66.375 62.496,69.374 63.182,72.1C63.873,74.843 65.317,77.727 67.258,80.235C70.283,84.146 75.033,87.883 80.906,90.973C85.251,93.258 92.232,95.133 98.765,95.769C108.635,96.73 118.822,95.343 127.693,91.831C130.94,90.546 135.536,87.687 138.549,85.078C142.738,81.45 145.436,77.427 146.604,73.063L146.804,72.313L176.376,72.269L176.376,73.23C176.376,78.821 173.864,85.882 170.09,90.896C168.574,92.911 164.834,97.14 163.048,98.86C159.461,102.313 155.045,105.675 150.579,108.353C139.621,114.922 127.918,118.427 113.67,119.406C111.533,119.553 106.184,119.725 104.674,119.696C104.165,119.686 103.133,119.669 102.381,119.658L102.381,119.658ZM109.789,117.072C117.356,116.723 124.488,115.658 130.784,113.935C136.202,112.453 142.535,109.946 146.926,107.545C151.569,105.006 155.024,102.493 160.004,98.035C165.52,93.096 169.315,88.198 171.39,83.34C172.267,81.287 172.993,78.755 173.374,76.414C173.473,75.808 173.576,75.183 173.602,75.025L173.65,74.738L148.91,74.783L148.464,75.885C146.596,80.504 143.491,84.492 138.938,88.121C136.147,90.346 132.505,92.576 129.677,93.792C122.321,96.957 113.701,98.638 104.825,98.639C93.811,98.64 84.338,96.2 76.069,91.231C71.998,88.784 67.567,85.068 65.238,82.147C60.334,75.997 58.759,68.982 60.701,61.938C61.142,60.337 61.548,59.288 62.386,57.585C63.753,54.807 64.877,53.239 67.103,51.012C70.049,48.064 72.339,46.287 76.145,43.998C77.883,42.952 79.408,42.19 81.17,41.486C86.708,39.272 92.901,37.838 99.647,37.207C101.652,37.019 107.188,36.941 109.304,37.071C117.396,37.568 124.606,39.432 131.221,42.737C134.081,44.167 136.279,45.505 138.644,47.257L139.667,48.016L154.274,48.016C165.235,48.016 168.88,47.99 168.88,47.914C168.88,47.747 168.113,46.46 167.312,45.282C163.108,39.096 155.46,32.853 146.499,28.289C141.841,25.917 138.23,24.493 133.117,23.014C114.775,17.706 94.063,17.678 77.161,22.938C71.316,24.757 63.769,28.484 57.975,32.412C54.156,35.002 49.985,38.916 47.127,42.592C44.731,45.674 43.263,48.153 41.439,52.197C39.99,55.411 39.568,56.277 38.795,57.619C37.07,60.614 35.772,62.4 33.987,64.232C31.79,66.487 29.509,68.229 27.039,69.537L26.265,69.947L27.612,70.616C30.233,71.918 31.919,73.144 34.121,75.35C36.348,77.581 37.536,79.18 39.502,82.588C43.207,89.011 46.179,93.004 50.138,96.879C54.224,100.878 58.405,104.089 62.826,106.624C64.661,107.676 69.699,110.248 71.381,110.992C79.392,114.535 89.115,116.533 101.102,117.102C102.512,117.168 108.107,117.149 109.79,117.072L109.789,117.072Z" style="fill:rgb(51,51,51);fill-rule:nonzero;"/>
        </g>
    </g>
</svg>
